<svg xmlns="http://www.w3.org/2000/svg" width="64" height="64" viewBox="0 0 1840 1840">
  <!-- Material Design Icons "md-snowflake" via Nerd Fonts (Apache 2.0); grey fill gets recolored by GTK -->
  <path fill="#bebebe" transform="translate(126.2 1716.2) scale(1 -1)" d="M1544 628 1344 576 1172 672V920L1344 1016L1544 964L1588 1128L1436 1168L1476 1320L1308 1364L1256 1164L1088 1068L876 1192V1384L1024 1528L904 1648L792 1540L680 1648L560 1528L708 1384V1192L492 1068L324 1164L272 1364L108 1320L148 1168L0 1128L44 964L240 1016L412 920V672L240 576L44 628L0 464L148 424L108 272L276 228L328 428L496 524L708 400V208L560 64L680 -56L792 52L904 -56L1024 64L876 208V400L1092 524L1260 428L1316 232L1476 272L1436 424L1584 464ZM580 920 792 1044 1004 920V672L792 548L580 672Z"/>
</svg>
